<?xml version="1.0" encoding="UTF-8" standalone="no"?>
<!-- Copyright by honeyMead@github.com. All rights reserved. -->
<svg
   xmlns:dc="http://purl.org/dc/elements/1.1/"
   xmlns:cc="http://creativecommons.org/ns#"
   xmlns:rdf="http://www.w3.org/1999/02/22-rdf-syntax-ns#"
   xmlns:svg="http://www.w3.org/2000/svg"
   xmlns="http://www.w3.org/2000/svg"
   xmlns:sodipodi="http://sodipodi.sourceforge.net/DTD/sodipodi-0.dtd"
   xmlns:inkscape="http://www.inkscape.org/namespaces/inkscape"
   width="100"
   height="100"
   viewBox="0 0 26.458333 26.458333"
   version="1.1"
   id="svg8"
   inkscape:version="1.0.1 (3bc2e813f5, 2020-09-07)"
   sodipodi:docname="favicon.svg">
  <style
     id="style2433"></style>
  <defs
     id="defs2">
    <filter
       style="color-interpolation-filters:sRGB;"
       inkscape:label="Blur"
       id="filter2870">
      <feGaussianBlur
         stdDeviation="0.8 0.8"
         result="blur"
         id="feGaussianBlur2868" />
    </filter>
  </defs>
  <sodipodi:namedview
     id="base"
     pagecolor="#ffffff"
     bordercolor="#666666"
     borderopacity="1.0"
     inkscape:pageopacity="0.0"
     inkscape:pageshadow="2"
     inkscape:zoom="3.959798"
     inkscape:cx="20.157859"
     inkscape:cy="49.617856"
     inkscape:document-units="mm"
     inkscape:current-layer="g2874"
     inkscape:document-rotation="0"
     showgrid="true"
     units="px"
     inkscape:window-width="1920"
     inkscape:window-height="1001"
     inkscape:window-x="-9"
     inkscape:window-y="-9"
     inkscape:window-maximized="1"
     inkscape:snap-grids="true">
    <inkscape:grid
       type="xygrid"
       id="grid833" />
  </sodipodi:namedview>
  <metadata
     id="metadata5">
    <rdf:RDF>
      <cc:Work
         rdf:about="">
        <dc:format>image/svg+xml</dc:format>
        <dc:type
           rdf:resource="http://purl.org/dc/dcmitype/StillImage" />
        <dc:title></dc:title>
      </cc:Work>
    </rdf:RDF>
  </metadata>
  <g
     inkscape:label="Ebene 1"
     inkscape:groupmode="layer"
     id="layer1"
     sodipodi:insensitive="true">
    <path
       id="rect842"
       style="fill:#bb9865;fill-opacity:1;stroke:#000000;stroke-width:0.264583;stroke-linecap:square;stroke-linejoin:bevel;stroke-miterlimit:4;stroke-dasharray:none"
       d="m 2.9180838,3.0585516 c 3.7317495,-3.73174936 16.8352352,-3.73174971 20.5669852,-10e-8 3.427831,3.4278309 3.731749,16.8352345 0,20.5669845 -3.427831,3.427831 -16.8352357,3.731749 -20.5669853,0 -3.427831,-3.427831 -3.42783066,-17.1391536 10e-8,-20.5669844 z"
       sodipodi:nodetypes="sssss"
       inkscape:label="Board" />
    <g
       id="g2936"
       inkscape:label="White piece"
       transform="matrix(0.5776346,0,0,0.5776346,10.749502,0.37223736)">
      <path
         id="path2932"
         style="fill:#000000;fill-opacity:0.893548;stroke:none;stroke-width:0.132292;stroke-linecap:square;stroke-linejoin:bevel;stroke-miterlimit:4;stroke-dasharray:none;stroke-opacity:1;filter:url(#filter2870)"
         inkscape:label="Piece shadow"
         d="M 13.453715,5.310184 C 9.6975225,5.335242 6.1997204,8.1548759 5.3775427,11.81995 c -0.937902,3.617124 0.858706,7.700421 4.1582031,9.453125 3.1948352,1.832496 7.5288622,1.228461 10.1058672,-1.400789 2.668922,-2.561742 3.308398,-6.918954 1.480071,-10.1363209 -1.475938,-2.756017 -4.54229,-4.5281807 -7.667969,-4.4257811 z" />
      <circle
         style="fill:#f2eec9;fill-opacity:1;stroke:#151515;stroke-width:0.132292;stroke-linecap:square;stroke-linejoin:bevel;stroke-miterlimit:4;stroke-dasharray:none;stroke-opacity:1"
         id="circle2934"
         cx="13.323661"
         cy="13.096874"
         r="7.9847469"
         inkscape:label="Piece" />
    </g>
    <g
       id="g2874"
       inkscape:label="White piece"
       transform="matrix(0.5776346,0,0,0.5776346,0.16616872,0.37223736)">
      <path
         id="circle2690"
         style="fill:#000000;fill-opacity:0.893548;stroke:none;stroke-width:0.132292;stroke-linecap:square;stroke-linejoin:bevel;stroke-miterlimit:4;stroke-dasharray:none;stroke-opacity:1;filter:url(#filter2870)"
         inkscape:label="Piece shadow"
         d="M 13.453715,5.310184 C 9.6975225,5.335242 6.1997204,8.1548759 5.3775427,11.81995 c -0.937902,3.617124 0.858706,7.700421 4.1582031,9.453125 3.1948352,1.832496 7.5288622,1.228461 10.1058672,-1.400789 2.668922,-2.561742 3.308398,-6.918954 1.480071,-10.1363209 -1.475938,-2.756017 -4.54229,-4.5281807 -7.667969,-4.4257811 z" />
      <circle
         style="fill:#332926;fill-opacity:1;stroke:#151515;stroke-width:0.132292;stroke-linecap:square;stroke-linejoin:bevel;stroke-miterlimit:4;stroke-dasharray:none;stroke-opacity:1"
         id="path845"
         cx="13.323661"
         cy="13.096874"
         r="7.9847469"
         inkscape:label="Piece" />
    </g>
    <g
       id="g2942"
       inkscape:label="White piece"
       transform="matrix(0.5776346,0,0,0.5776346,0.16616872,10.95557)">
      <path
         id="path2938"
         style="fill:#000000;fill-opacity:0.893548;stroke:none;stroke-width:0.132292;stroke-linecap:square;stroke-linejoin:bevel;stroke-miterlimit:4;stroke-dasharray:none;stroke-opacity:1;filter:url(#filter2870)"
         inkscape:label="Piece shadow"
         d="M 13.453715,5.310184 C 9.6975225,5.335242 6.1997204,8.1548759 5.3775427,11.81995 c -0.937902,3.617124 0.858706,7.700421 4.1582031,9.453125 3.1948352,1.832496 7.5288622,1.228461 10.1058672,-1.400789 2.668922,-2.561742 3.308398,-6.918954 1.480071,-10.1363209 -1.475938,-2.756017 -4.54229,-4.5281807 -7.667969,-4.4257811 z" />
      <circle
         style="fill:#f2eec9;fill-opacity:1;stroke:#151515;stroke-width:0.132292;stroke-linecap:square;stroke-linejoin:bevel;stroke-miterlimit:4;stroke-dasharray:none;stroke-opacity:1"
         id="circle2940"
         cx="13.323661"
         cy="13.096874"
         r="7.9847469"
         inkscape:label="Piece" />
    </g>
    <g
       id="g2948"
       inkscape:label="Black piece"
       transform="matrix(0.5776346,0,0,0.5776346,10.749502,10.95557)">
      <path
         id="path2944"
         style="fill:#000000;fill-opacity:0.893548;stroke:none;stroke-width:0.132292;stroke-linecap:square;stroke-linejoin:bevel;stroke-miterlimit:4;stroke-dasharray:none;stroke-opacity:1;filter:url(#filter2870)"
         inkscape:label="Piece shadow"
         d="M 13.453715,5.310184 C 9.6975225,5.335242 6.1997204,8.1548759 5.3775427,11.81995 c -0.937902,3.617124 0.858706,7.700421 4.1582031,9.453125 3.1948352,1.832496 7.5288622,1.228461 10.1058672,-1.400789 2.668922,-2.561742 3.308398,-6.918954 1.480071,-10.1363209 -1.475938,-2.756017 -4.54229,-4.5281807 -7.667969,-4.4257811 z" />
      <circle
         style="fill:#332926;fill-opacity:1;stroke:#151515;stroke-width:0.132292;stroke-linecap:square;stroke-linejoin:bevel;stroke-miterlimit:4;stroke-dasharray:none;stroke-opacity:1"
         id="circle2946"
         cx="13.323661"
         cy="13.096874"
         r="7.9847469"
         inkscape:label="Piece" />
    </g>
  </g>
</svg>
